<svg xmlns="http://www.w3.org/2000/svg" width="318" height="37" viewBox="0 0 318 37"><path fill="#fff" d="M32.30 28.77L28.65 28.77L28.61 9.39L19 25.54L17.25 25.54L7.64 9.50L7.64 28.77L3.99 28.77L3.99 2.17L7.11 2.17L18.20 20.86L29.15 2.17L32.26 2.17L32.30 28.77ZM54.00 8.63L57.57 8.63L47.80 30.78Q46.51 33.86 44.78 35.11Q43.05 36.37 40.62 36.37L40.62 36.37Q39.14 36.37 37.75 35.89Q36.37 35.42 35.45 34.50L35.45 34.50L37.01 31.77Q38.57 33.25 40.62 33.25L40.62 33.25Q41.95 33.25 42.84 32.55Q43.74 31.84 44.46 30.13L44.46 30.13L45.11 28.73L36.21 8.63L40.01 8.63L47.04 24.74L54.00 8.63ZM90.52 5.47L75.54 5.47L75.54 14.74L88.88 14.74L88.88 18.01L75.54 18.01L75.54 28.77L71.74 28.77L71.74 2.17L90.52 2.17L90.52 5.47ZM101.95 8.44Q106.13 8.44 108.36 10.49Q110.58 12.54 110.58 16.61L110.58 16.61L110.58 28.77L107.12 28.77L107.12 26.11Q106.21 27.51 104.52 28.25Q102.83 28.99 100.51 28.99L100.51 28.99Q97.13 28.99 95.09 27.36Q93.06 25.73 93.06 23.07L93.06 23.07Q93.06 20.41 95.00 18.79Q96.94 17.18 101.16 17.18L101.16 17.18L106.93 17.18L106.93 16.45Q106.93 14.10 105.56 12.84Q104.20 11.59 101.54 11.59L101.54 11.59Q99.75 11.59 98.04 12.18Q96.33 12.77 95.15 13.76L95.15 13.76L93.63 11.02Q95.19 9.77 97.36 9.10Q99.52 8.44 101.95 8.44L101.95 8.44ZM101.12 26.18Q103.21 26.18 104.73 25.25Q106.25 24.32 106.93 22.61L106.93 22.61L106.93 19.80L101.31 19.80Q96.67 19.80 96.67 22.91L96.67 22.91Q96.67 24.43 97.85 25.31Q99.03 26.18 101.12 26.18L101.12 26.18ZM131.21 8.63L134.79 8.63L125.97 28.77L122.25 28.77L113.43 8.63L117.23 8.63L124.15 24.78L131.21 8.63ZM146.26 28.99Q143.26 28.99 140.87 27.66Q138.47 26.33 137.12 24.00Q135.77 21.66 135.77 18.70L135.77 18.70Q135.77 15.73 137.12 13.39Q138.47 11.06 140.87 9.75Q143.26 8.44 146.26 8.44L146.26 8.44Q149.26 8.44 151.64 9.75Q154.01 11.06 155.36 13.39Q156.71 15.73 156.71 18.70L156.71 18.70Q156.71 21.66 155.36 24.00Q154.01 26.33 151.64 27.66Q149.26 28.99 146.26 28.99L146.26 28.99ZM146.26 25.80Q148.20 25.80 149.74 24.91Q151.28 24.02 152.15 22.40Q153.03 20.79 153.03 18.70L153.03 18.70Q153.03 16.61 152.15 14.99Q151.28 13.38 149.74 12.50Q148.20 11.63 146.26 11.63L146.26 11.63Q144.32 11.63 142.78 12.50Q141.25 13.38 140.35 14.99Q139.46 16.61 139.46 18.70L139.46 18.70Q139.46 20.79 140.35 22.40Q141.25 24.02 142.78 24.91Q144.32 25.80 146.26 25.80L146.26 25.80ZM165.26 12.01Q166.21 10.26 168.07 9.35Q169.94 8.44 172.60 8.44L172.60 8.44L172.60 11.97Q172.29 11.93 171.76 11.93L171.76 11.93Q168.80 11.93 167.10 13.70Q165.41 15.47 165.41 18.73L165.41 18.73L165.41 28.77L161.77 28.77L161.77 8.63L165.26 8.63L165.26 12.01ZM177.08 28.77L177.08 8.63L180.73 8.63L180.73 28.77L177.08 28.77ZM178.90 4.75Q177.84 4.75 177.14 4.07Q176.43 3.38 176.43 2.39L176.43 2.39Q176.43 1.41 177.14 0.70Q177.84-0.00 178.90-0.00L178.90-0.00Q179.97-0.00 180.67 0.66Q181.37 1.33 181.37 2.32L181.37 2.32Q181.37 3.34 180.67 4.05Q179.97 4.75 178.90 4.75L178.90 4.75ZM197.87 24.97L199.01 27.59Q198.21 28.27 197.03 28.63Q195.85 28.99 194.60 28.99L194.60 28.99Q191.56 28.99 189.89 27.36Q188.21 25.73 188.21 22.69L188.21 22.69L188.21 11.63L184.79 11.63L184.79 8.63L188.21 8.63L188.21 4.22L191.86 4.22L191.86 8.63L197.64 8.63L197.64 11.63L191.86 11.63L191.86 22.53Q191.86 24.17 192.68 25.04Q193.50 25.92 195.02 25.92L195.02 25.92Q196.69 25.92 197.87 24.97L197.87 24.97ZM220.93 18.81Q220.93 19.23 220.86 19.91L220.86 19.91L204.52 19.91Q204.86 22.57 206.85 24.19Q208.85 25.80 211.81 25.80L211.81 25.80Q215.42 25.80 217.63 23.37L217.63 23.37L219.64 25.73Q218.27 27.32 216.24 28.16Q214.21 28.99 211.70 28.99L211.70 28.99Q208.51 28.99 206.04 27.68Q203.57 26.37 202.22 24.02Q200.87 21.66 200.87 18.70L200.87 18.70Q200.87 15.77 202.18 13.41Q203.49 11.06 205.79 9.75Q208.09 8.44 210.98 8.44L210.98 8.44Q213.86 8.44 216.13 9.75Q218.39 11.06 219.66 13.41Q220.93 15.77 220.93 18.81L220.93 18.81ZM210.98 11.51Q208.35 11.51 206.59 13.11Q204.82 14.71 204.52 17.29L204.52 17.29L217.44 17.29Q217.13 14.74 215.37 13.13Q213.60 11.51 210.98 11.51L210.98 11.51ZM248.63 29.07Q244.64 29.07 241.43 27.30Q238.22 25.54 236.40 22.44Q234.57 19.34 234.57 15.47L234.57 15.47Q234.57 11.59 236.40 8.49Q238.22 5.40 241.45 3.63Q244.68 1.86 248.67 1.86L248.67 1.86Q251.79 1.86 254.37 2.91Q256.96 3.95 258.78 6.00L258.78 6.00L256.31 8.40Q253.31 5.24 248.82 5.24L248.82 5.24Q245.86 5.24 243.47 6.57Q241.07 7.90 239.72 10.24Q238.37 12.58 238.37 15.47L238.37 15.47Q238.37 18.35 239.72 20.69Q241.07 23.03 243.47 24.36Q245.86 25.69 248.82 25.69L248.82 25.69Q253.27 25.69 256.31 22.50L256.31 22.50L258.78 24.89Q256.96 26.94 254.35 28.01Q251.75 29.07 248.63 29.07L248.63 29.07ZM270.75 8.44Q274.93 8.44 277.15 10.49Q279.38 12.54 279.38 16.61L279.38 16.61L279.38 28.77L275.92 28.77L275.92 26.11Q275.01 27.51 273.32 28.25Q271.62 28.99 269.31 28.99L269.31 28.99Q265.92 28.99 263.89 27.36Q261.86 25.73 261.86 23.07L261.86 23.07Q261.86 20.41 263.80 18.79Q265.73 17.18 269.95 17.18L269.95 17.18L275.73 17.18L275.73 16.45Q275.73 14.10 274.36 12.84Q272.99 11.59 270.33 11.59L270.33 11.59Q268.55 11.59 266.84 12.18Q265.13 12.77 263.95 13.76L263.95 13.76L262.43 11.02Q263.99 9.77 266.15 9.10Q268.32 8.44 270.75 8.44L270.75 8.44ZM269.91 26.18Q272.00 26.18 273.52 25.25Q275.04 24.32 275.73 22.61L275.73 22.61L275.73 19.80L270.10 19.80Q265.47 19.80 265.47 22.91L265.47 22.91Q265.47 24.43 266.65 25.31Q267.82 26.18 269.91 26.18L269.91 26.18ZM293.51 3.34Q290.24 3.34 290.24 6.88L290.24 6.88L290.24 8.63L296.10 8.63L296.10 11.63L290.32 11.63L290.32 28.77L286.67 28.77L286.67 11.63L283.25 11.63L283.25 8.63L286.67 8.63L286.67 6.84Q286.67 3.84 288.42 2.09Q290.17 0.34 293.32 0.34L293.32 0.34Q294.54 0.34 295.60 0.65Q296.67 0.95 297.43 1.52L297.43 1.52L296.32 4.29Q295.07 3.34 293.51 3.34L293.51 3.34ZM317.45 18.81Q317.45 19.23 317.38 19.91L317.38 19.91L301.04 19.91Q301.38 22.57 303.37 24.19Q305.37 25.80 308.33 25.80L308.33 25.80Q311.94 25.80 314.15 23.37L314.15 23.37L316.16 25.73Q314.79 27.32 312.76 28.16Q310.73 28.99 308.22 28.99L308.22 28.99Q305.03 28.99 302.56 27.68Q300.09 26.37 298.74 24.02Q297.39 21.66 297.39 18.70L297.39 18.70Q297.39 15.77 298.70 13.41Q300.01 11.06 302.31 9.75Q304.61 8.44 307.50 8.44L307.50 8.44Q310.38 8.44 312.65 9.75Q314.91 11.06 316.18 13.41Q317.45 15.77 317.45 18.81L317.45 18.81ZM307.50 11.51Q304.87 11.51 303.11 13.11Q301.34 14.71 301.04 17.29L301.04 17.29L313.96 17.29Q313.65 14.74 311.89 13.13Q310.12 11.51 307.50 11.51L307.50 11.51Z"></path></svg>